<svg width="277" height="140" viewBox="0 0 277 140" fill="none" xmlns="http://www.w3.org/2000/svg">
<path d="M198.914 106.019V80.0986H205.666C206.775 80.0986 207.82 80.1839 208.802 80.3546C209.804 80.5253 210.69 80.8559 211.458 81.3466C212.226 81.8159 212.823 82.4986 213.25 83.3946C213.698 84.2693 213.922 85.4319 213.922 86.8826C213.922 87.9279 213.762 88.8133 213.442 89.5386C213.143 90.2426 212.706 90.8079 212.13 91.2346C211.575 91.6613 210.903 91.9493 210.114 92.0986C211.116 92.2266 211.959 92.5573 212.642 93.0906C213.324 93.6026 213.836 94.2959 214.178 95.1706C214.54 96.0453 214.722 97.1013 214.722 98.3386C214.722 99.6826 214.54 100.845 214.178 101.827C213.836 102.787 213.335 103.576 212.674 104.195C212.012 104.813 211.191 105.272 210.21 105.571C209.25 105.869 208.14 106.019 206.882 106.019H198.914ZM204.642 102.019H205.858C207.116 102.019 207.98 101.699 208.45 101.059C208.94 100.419 209.186 99.4799 209.186 98.2426C209.186 97.2613 209.079 96.4826 208.866 95.9066C208.652 95.3306 208.3 94.9146 207.81 94.6586C207.319 94.3813 206.658 94.2426 205.826 94.2426H204.642V102.019ZM204.642 90.4666H205.762C206.636 90.4666 207.298 90.3386 207.746 90.0826C208.194 89.8053 208.492 89.4106 208.642 88.8986C208.812 88.3866 208.898 87.7679 208.898 87.0426C208.898 86.3599 208.77 85.7946 208.514 85.3466C208.279 84.8773 207.916 84.5253 207.426 84.2906C206.956 84.0559 206.359 83.9386 205.634 83.9386H204.642V90.4666ZM216.416 106.019L221.312 80.0986H227.84L232.672 106.019H227.392L226.528 100.547H222.72L221.824 106.019H216.416ZM223.232 97.1226H225.984L224.608 87.0106L223.232 97.1226ZM235.289 106.019V80.0986H239.321L244.633 92.5786V80.0986H249.369V106.019H245.497L240.185 92.5786V106.019H235.289ZM253.226 106.019V80.0986H259.786C262.047 80.0986 263.807 80.3866 265.066 80.9626C266.325 81.5173 267.21 82.4026 267.722 83.6186C268.234 84.8133 268.49 86.3706 268.49 88.2906V97.6986C268.49 99.6399 268.234 101.229 267.722 102.467C267.21 103.683 266.325 104.579 265.066 105.155C263.829 105.731 262.09 106.019 259.85 106.019H253.226ZM258.954 102.051H259.85C260.725 102.051 261.354 101.923 261.738 101.667C262.122 101.411 262.357 101.027 262.442 100.515C262.549 100.003 262.602 99.3626 262.602 98.5946V87.2986C262.602 86.5306 262.538 85.9119 262.41 85.4426C262.303 84.9733 262.058 84.6319 261.674 84.4186C261.29 84.2053 260.671 84.0986 259.818 84.0986H258.954V102.051Z" fill="#8B1010"/>
<g filter="url(#filter0_f_118_730)">
<path d="M153.01 60.2718C153.04 68.7248 181.999 39.7666 185.939 65.1282C208.263 77.4757 191.412 103.491 181.999 108.297C171.932 117.034 100.11 122.15 92.4997 106.138C36.3989 124.678 22.2078 119.684 21.0127 112.884C15.2009 79.8127 33.9586 77.809 88.8403 77.809C86.3634 41.0442 97.1334 20.6399 124.302 20.071C145.478 18.2552 152.98 51.8187 153.01 60.2718Z" fill="#D05454" fill-opacity="0.2"/>
</g>
<g filter="url(#filter1_f_118_730)">
<path d="M45.8486 92.5611C39.464 78.7592 23.127 106.457 27.9154 111.527C32.7039 116.597 41.9052 105.236 41.9052 105.236C45.1375 114.19 51.6698 110.025 61.0589 101.575M61.0589 101.575C65.9504 83.8537 75.4517 80.632 79.6493 87.5849M61.0589 101.575C61.0589 106.926 66.7956 109.249 75.8936 100.072C83.0638 119.317 124.717 54.9109 115.985 32.8466C107.253 10.7822 77.4898 113.593 113.732 108.335C121.986 107.137 127.252 98.1007 127.252 98.1007" stroke="#BE1C1C" stroke-opacity="0.5" stroke-width="5" stroke-linecap="round"/>
<path d="M134.573 32.1893C117.722 90.2265 128.095 125.705 145.371 95.4718M114.48 64.4878C120.71 61.9836 123.523 61.5017 127.437 62.1405C136.1 62.3926 139.562 60.5785 144.338 55.3804" stroke="#BE1C1C" stroke-opacity="0.5" stroke-width="5" stroke-linecap="round"/>
<path d="M150.036 71.3419C149.842 71.3215 156.582 70.9201 156.545 81.3882C156.508 91.8563 152.1 94.5359 150.036 95.2841C147.972 96.0322 140.771 94.439 142.18 83.9233C143.588 73.4076 150.036 71.3419 150.036 71.3419ZM150.036 71.3419C159.071 73.393 163.47 72.0034 167.155 70.4969M167.155 70.4969C169.793 64.5966 172.971 62.9476 178.422 60.6383M167.155 70.4969C168.786 77.5939 180.957 83.7355 183.492 90.6834C186.027 97.6313 174.948 106.269 170.159 107.02C165.371 107.772 161.897 104.298 163.869 99.4153C169.69 88.6178 178.288 83.9558 189.313 78.0081" stroke="#BE1C1C" stroke-opacity="0.5" stroke-width="5" stroke-linecap="round"/>
<path d="M46.8809 88.8993C44.5488 97.3886 43.7885 98.5013 42.6265 105.639" stroke="#BE1C1C" stroke-opacity="0.5" stroke-width="5" stroke-linecap="round"/>
<path d="M80.6011 84.0112C78.269 92.5004 77.5087 93.6131 76.3467 100.751" stroke="#BE1C1C" stroke-opacity="0.5" stroke-width="5" stroke-linecap="round"/>
</g>
<g filter="url(#filter2_f_118_730)">
<path d="M43.4335 91.3535C37.049 77.5516 20.7119 105.249 25.5004 110.319C30.2888 115.39 39.4901 104.029 39.4901 104.029C42.7225 112.982 49.2548 108.817 58.6438 100.367M58.6438 100.367C63.5354 82.6461 73.0366 79.4244 77.2342 86.3773M58.6438 100.367C58.6438 105.719 64.3805 108.042 73.4786 98.8648C80.6488 118.109 122.302 53.7033 113.57 31.6389C104.838 9.57459 75.0747 112.385 111.317 107.127C119.571 105.93 124.837 96.8931 124.837 96.8931" stroke="#BE1C1C" stroke-opacity="0.5" stroke-width="5" stroke-linecap="round"/>
<path d="M132.159 30.9817C115.307 89.0188 125.68 124.497 142.956 94.2641M112.066 63.2801C118.296 60.776 121.109 60.2941 125.023 60.9329C133.685 61.1849 137.147 59.3709 141.923 54.1727" stroke="#BE1C1C" stroke-opacity="0.5" stroke-width="5" stroke-linecap="round"/>
<path d="M147.621 70.1343C147.427 70.1139 154.167 69.7125 154.13 80.1806C154.093 90.6487 149.685 93.3282 147.621 94.0764C145.557 94.8246 138.356 93.2314 139.765 82.7157C141.173 72.2 147.621 70.1343 147.621 70.1343ZM147.621 70.1343C156.656 72.1854 161.055 70.7958 164.74 69.2892M164.74 69.2892C167.378 63.389 170.556 61.7399 176.007 59.4307M164.74 69.2892C166.371 76.3863 178.542 82.5278 181.077 89.4758C183.612 96.4237 172.533 105.062 167.744 105.813C162.956 106.564 159.482 103.09 161.454 98.2076C167.275 87.4102 175.873 82.7481 186.898 76.8005" stroke="#BE1C1C" stroke-opacity="0.5" stroke-width="5" stroke-linecap="round"/>
<path d="M44.4653 87.6917C42.1333 96.1809 41.373 97.2936 40.211 104.432" stroke="#BE1C1C" stroke-opacity="0.5" stroke-width="5" stroke-linecap="round"/>
<path d="M78.1855 82.8036C75.8535 91.2928 75.0932 92.4055 73.9312 99.5434" stroke="#BE1C1C" stroke-opacity="0.5" stroke-width="5" stroke-linecap="round"/>
</g>
<g filter="url(#filter3_f_118_730)">
<path d="M44.6411 88.5357C38.2565 74.7338 21.9195 102.432 26.7079 107.502C31.4964 112.572 40.6976 101.211 40.6976 101.211C43.93 110.164 50.4623 105.999 59.8514 97.5493M59.8514 97.5493C64.7429 79.8283 74.2442 76.6066 78.4418 83.5595M59.8514 97.5493C59.8514 102.901 65.588 105.224 74.6861 96.047C81.8563 115.291 123.509 50.8855 114.778 28.8211C106.046 6.7568 76.2823 109.567 112.524 104.309C120.779 103.112 126.044 94.0753 126.044 94.0753" stroke="#BE1C1C" stroke-opacity="0.5" stroke-width="5" stroke-linecap="round"/>
<path d="M133.366 28.1639C116.515 86.2011 126.888 121.679 144.164 91.4463M113.273 60.4624C119.503 57.9582 122.316 57.4763 126.23 58.1151C134.893 58.3672 138.355 56.5531 143.131 51.355" stroke="#BE1C1C" stroke-opacity="0.5" stroke-width="5" stroke-linecap="round"/>
<path d="M148.828 67.3165C148.634 67.2961 155.374 66.8947 155.337 77.3628C155.3 87.8309 150.892 90.5105 148.828 91.2586C146.764 92.0068 139.563 90.4136 140.972 79.8979C142.38 69.3822 148.828 67.3165 148.828 67.3165ZM148.828 67.3165C157.863 69.3676 162.262 67.978 165.947 66.4714M165.947 66.4714C168.585 60.5712 171.763 58.9221 177.214 56.6129M165.947 66.4714C167.578 73.5685 179.749 79.7101 182.284 86.658C184.819 93.6059 173.74 102.244 168.951 102.995C164.163 103.746 160.689 100.272 162.661 95.3898C168.482 84.5924 177.08 79.9303 188.105 73.9827" stroke="#BE1C1C" stroke-opacity="0.5" stroke-width="5" stroke-linecap="round"/>
<path d="M45.6733 84.8739C43.3413 93.3631 42.581 94.4758 41.419 101.614" stroke="#BE1C1C" stroke-opacity="0.5" stroke-width="5" stroke-linecap="round"/>
<path d="M79.3931 79.9858C77.061 88.475 76.3007 89.5877 75.1387 96.7257" stroke="#BE1C1C" stroke-opacity="0.5" stroke-width="5" stroke-linecap="round"/>
</g>
<path d="M44.4907 90.7906C38.1061 76.9887 21.7691 104.686 26.5575 109.757C31.346 114.827 40.5473 103.466 40.5473 103.466C43.7796 112.419 50.3119 108.254 59.701 99.8042M59.701 99.8042C64.5925 82.0832 74.0938 78.8615 78.2914 85.8144M59.701 99.8042C59.701 105.156 65.4376 107.479 74.5357 98.3019C81.7059 117.546 123.359 53.1404 114.627 31.076C105.895 9.01169 76.1319 111.822 112.374 106.564C120.628 105.367 125.894 96.3302 125.894 96.3302" stroke="#FCF5EB" stroke-width="5" stroke-linecap="round"/>
<path d="M133.216 30.4188C116.365 88.4559 126.737 123.934 144.013 93.7012M113.123 62.7172C119.353 60.2131 122.166 59.7312 126.08 60.37C134.742 60.622 138.205 58.808 142.98 53.6098" stroke="#FCF5EB" stroke-width="5" stroke-linecap="round"/>
<path d="M148.678 69.5714C148.484 69.551 155.223 69.1496 155.187 79.6177C155.15 90.0858 150.742 92.7654 148.678 93.5135C146.614 94.2617 139.413 92.6685 140.822 82.1528C142.23 71.6371 148.678 69.5714 148.678 69.5714ZM148.678 69.5714C157.713 71.6225 162.112 70.2329 165.796 68.7263M165.796 68.7263C168.435 62.8261 171.612 61.177 177.063 58.8678M165.796 68.7263C167.427 75.8234 179.598 81.965 182.133 88.9129C184.668 95.8608 173.589 104.499 168.801 105.25C164.012 106.001 160.539 102.527 162.51 97.6447C168.331 86.8473 176.929 82.1852 187.955 76.2376" stroke="#FCF5EB" stroke-width="5" stroke-linecap="round"/>
<path d="M45.5225 87.1291C43.1904 95.6183 42.4301 96.731 41.2681 103.869" stroke="#FCF5EB" stroke-width="5" stroke-linecap="round"/>
<path d="M79.2446 82.2406C76.9126 90.7298 76.1523 91.8426 74.9903 98.9805" stroke="#FCF5EB" stroke-width="5" stroke-linecap="round"/>
<defs>
<filter id="filter0_f_118_730" x="0" y="0" width="216.994" height="139.025" filterUnits="userSpaceOnUse" color-interpolation-filters="sRGB">
<feFlood flood-opacity="0" result="BackgroundImageFix"/>
<feBlend mode="normal" in="SourceGraphic" in2="BackgroundImageFix" result="shape"/>
<feGaussianBlur stdDeviation="10" result="effect1_foregroundBlur_118_730"/>
</filter>
<filter id="filter1_f_118_730" x="14.5493" y="17.2385" width="187.265" height="108.09" filterUnits="userSpaceOnUse" color-interpolation-filters="sRGB">
<feFlood flood-opacity="0" result="BackgroundImageFix"/>
<feBlend mode="normal" in="SourceGraphic" in2="BackgroundImageFix" result="shape"/>
<feGaussianBlur stdDeviation="5" result="effect1_foregroundBlur_118_730"/>
</filter>
<filter id="filter2_f_118_730" x="12.1343" y="16.0309" width="187.265" height="108.09" filterUnits="userSpaceOnUse" color-interpolation-filters="sRGB">
<feFlood flood-opacity="0" result="BackgroundImageFix"/>
<feBlend mode="normal" in="SourceGraphic" in2="BackgroundImageFix" result="shape"/>
<feGaussianBlur stdDeviation="5" result="effect1_foregroundBlur_118_730"/>
</filter>
<filter id="filter3_f_118_730" x="13.3418" y="13.2131" width="187.264" height="108.09" filterUnits="userSpaceOnUse" color-interpolation-filters="sRGB">
<feFlood flood-opacity="0" result="BackgroundImageFix"/>
<feBlend mode="normal" in="SourceGraphic" in2="BackgroundImageFix" result="shape"/>
<feGaussianBlur stdDeviation="5" result="effect1_foregroundBlur_118_730"/>
</filter>
</defs>
</svg>
