<svg width="277" height="140" viewBox="0 0 277 140" fill="none" xmlns="http://www.w3.org/2000/svg">
<path d="M198.913 106.019V80.0986H205.665C206.774 80.0986 207.82 80.1839 208.801 80.3546C209.804 80.5253 210.689 80.8559 211.457 81.3466C212.225 81.8159 212.822 82.4986 213.249 83.3946C213.697 84.2693 213.921 85.4319 213.921 86.8826C213.921 87.9279 213.761 88.8133 213.441 89.5386C213.142 90.2426 212.705 90.8079 212.129 91.2346C211.574 91.6613 210.902 91.9493 210.113 92.0986C211.116 92.2266 211.958 92.5573 212.641 93.0906C213.324 93.6026 213.836 94.2959 214.177 95.1706C214.54 96.0453 214.721 97.1013 214.721 98.3386C214.721 99.6826 214.54 100.845 214.177 101.827C213.836 102.787 213.334 103.576 212.673 104.195C212.012 104.813 211.19 105.272 210.209 105.571C209.249 105.869 208.14 106.019 206.881 106.019H198.913ZM204.641 102.019H205.857C207.116 102.019 207.98 101.699 208.449 101.059C208.94 100.419 209.185 99.4799 209.185 98.2426C209.185 97.2613 209.078 96.4826 208.865 95.9066C208.652 95.3306 208.3 94.9146 207.809 94.6586C207.318 94.3813 206.657 94.2426 205.825 94.2426H204.641V102.019ZM204.641 90.4666H205.761C206.636 90.4666 207.297 90.3386 207.745 90.0826C208.193 89.8053 208.492 89.4106 208.641 88.8986C208.812 88.3866 208.897 87.7679 208.897 87.0426C208.897 86.3599 208.769 85.7946 208.513 85.3466C208.278 84.8773 207.916 84.5253 207.425 84.2906C206.956 84.0559 206.358 83.9386 205.633 83.9386H204.641V90.4666ZM216.415 106.019L221.311 80.0986H227.839L232.671 106.019H227.391L226.527 100.547H222.719L221.823 106.019H216.415ZM223.231 97.1226H225.983L224.607 87.0106L223.231 97.1226ZM235.288 106.019V80.0986H239.32L244.632 92.5786V80.0986H249.368V106.019H245.496L240.184 92.5786V106.019H235.288ZM253.226 106.019V80.0986H259.786C262.047 80.0986 263.807 80.3866 265.066 80.9626C266.324 81.5173 267.21 82.4026 267.722 83.6186C268.234 84.8133 268.49 86.3706 268.49 88.2906V97.6986C268.49 99.6399 268.234 101.229 267.722 102.467C267.21 103.683 266.324 104.579 265.066 105.155C263.828 105.731 262.09 106.019 259.85 106.019H253.226ZM258.954 102.051H259.85C260.724 102.051 261.354 101.923 261.738 101.667C262.122 101.411 262.356 101.027 262.442 100.515C262.548 100.003 262.602 99.3626 262.602 98.5946V87.2986C262.602 86.5306 262.538 85.9119 262.41 85.4426C262.303 84.9733 262.058 84.6319 261.674 84.4186C261.29 84.2053 260.671 84.0986 259.818 84.0986H258.954V102.051Z" fill="#7C1212"/>
<g filter="url(#filter0_f_159_22)">
<path d="M153.01 60.2718C153.04 68.7248 181.999 39.7666 185.939 65.1282C208.263 77.4757 191.412 103.491 181.999 108.297C171.932 117.034 100.11 122.15 92.4997 106.138C36.3989 124.678 22.2078 119.684 21.0127 112.884C15.2009 79.8127 33.9586 77.809 88.8403 77.809C86.3634 41.0442 97.1334 20.6399 124.302 20.071C145.478 18.2552 152.98 51.8187 153.01 60.2718Z" fill="#D05454" fill-opacity="0.2"/>
</g>
<g filter="url(#filter1_f_159_22)">
<path d="M45.8481 92.5612C39.4635 78.7592 23.1265 106.457 27.9149 111.527C32.7034 116.597 41.9047 105.236 41.9047 105.236C45.137 114.19 51.6693 110.025 61.0584 101.575M61.0584 101.575C65.9499 83.8537 75.4512 80.632 79.6488 87.5849M61.0584 101.575C61.0584 106.926 66.7951 109.249 75.8931 100.072C83.0633 119.317 124.716 54.9109 115.985 32.8466C107.253 10.7822 77.4893 113.593 113.731 108.335C121.986 107.137 127.251 98.1007 127.251 98.1007" stroke="#BE1C1C" stroke-opacity="0.5" stroke-width="5" stroke-linecap="round"/>
<path d="M134.573 32.1893C117.722 90.2265 128.095 125.705 145.371 95.4718M114.48 64.4878C120.71 61.9836 123.523 61.5017 127.437 62.1405C136.1 62.3926 139.562 60.5785 144.338 55.3804" stroke="#BE1C1C" stroke-opacity="0.5" stroke-width="5" stroke-linecap="round"/>
<path d="M150.036 71.3419C149.842 71.3215 156.581 70.9201 156.545 81.3882C156.508 91.8563 152.1 94.5359 150.036 95.2841C147.972 96.0322 140.771 94.439 142.179 83.9233C143.588 73.4076 150.036 71.3419 150.036 71.3419ZM150.036 71.3419C159.071 73.393 163.47 72.0034 167.154 70.4969M167.154 70.4969C169.793 64.5966 172.97 62.9476 178.421 60.6383M167.154 70.4969C168.785 77.5939 180.956 83.7355 183.491 90.6834C186.026 97.6313 174.947 106.269 170.159 107.02C165.37 107.772 161.896 104.298 163.868 99.4153C169.689 88.6178 178.287 83.9558 189.313 78.0081" stroke="#BE1C1C" stroke-opacity="0.5" stroke-width="5" stroke-linecap="round"/>
<path d="M46.8799 88.8993C44.5478 97.3886 43.7875 98.5013 42.6256 105.639" stroke="#BE1C1C" stroke-opacity="0.5" stroke-width="5" stroke-linecap="round"/>
<path d="M80.6006 84.0112C78.2685 92.5004 77.5083 93.6131 76.3463 100.751" stroke="#BE1C1C" stroke-opacity="0.5" stroke-width="5" stroke-linecap="round"/>
</g>
<g filter="url(#filter2_f_159_22)">
<path d="M43.433 91.3535C37.0485 77.5516 20.7114 105.249 25.4999 110.319C30.2884 115.39 39.4896 104.029 39.4896 104.029C42.722 112.982 49.2543 108.817 58.6434 100.367M58.6434 100.367C63.5349 82.6461 73.0361 79.4244 77.2337 86.3773M58.6434 100.367C58.6434 105.719 64.38 108.042 73.4781 98.8648C80.6483 118.109 122.301 53.7033 113.57 31.6389C104.838 9.5746 75.0743 112.385 111.316 107.127C119.571 105.93 124.836 96.8931 124.836 96.8931" stroke="#BE1C1C" stroke-opacity="0.5" stroke-width="5" stroke-linecap="round"/>
<path d="M132.158 30.9817C115.307 89.0189 125.68 124.497 142.956 94.2641M112.065 63.2802C118.295 60.776 121.108 60.2941 125.022 60.9329C133.685 61.185 137.147 59.3709 141.923 54.1727" stroke="#BE1C1C" stroke-opacity="0.5" stroke-width="5" stroke-linecap="round"/>
<path d="M147.621 70.1343C147.427 70.1139 154.166 69.7125 154.13 80.1806C154.093 90.6487 149.684 93.3283 147.621 94.0764C145.557 94.8246 138.356 93.2314 139.764 82.7157C141.173 72.2 147.621 70.1343 147.621 70.1343ZM147.621 70.1343C156.656 72.1854 161.055 70.7958 164.739 69.2892M164.739 69.2892C167.378 63.389 170.555 61.7399 176.006 59.4307M164.739 69.2892C166.37 76.3863 178.541 82.5279 181.076 89.4758C183.611 96.4237 172.532 105.062 167.744 105.813C162.955 106.564 159.481 103.09 161.453 98.2076C167.274 87.4102 175.872 82.7481 186.898 76.8005" stroke="#BE1C1C" stroke-opacity="0.5" stroke-width="5" stroke-linecap="round"/>
<path d="M44.4648 87.6917C42.1328 96.1809 41.3725 97.2937 40.2105 104.432" stroke="#BE1C1C" stroke-opacity="0.5" stroke-width="5" stroke-linecap="round"/>
<path d="M78.1855 82.8036C75.8535 91.2928 75.0932 92.4055 73.9312 99.5435" stroke="#BE1C1C" stroke-opacity="0.5" stroke-width="5" stroke-linecap="round"/>
</g>
<g filter="url(#filter3_f_159_22)">
<path d="M44.6411 88.5357C38.2565 74.7338 21.9195 102.432 26.7079 107.502C31.4964 112.572 40.6976 101.211 40.6976 101.211C43.93 110.164 50.4623 105.999 59.8514 97.5493M59.8514 97.5493C64.7429 79.8283 74.2442 76.6066 78.4418 83.5595M59.8514 97.5493C59.8514 102.901 65.588 105.224 74.6861 96.047C81.8563 115.291 123.509 50.8855 114.778 28.8211C106.046 6.75679 76.2823 109.567 112.524 104.309C120.779 103.112 126.044 94.0753 126.044 94.0753" stroke="#BE1C1C" stroke-opacity="0.5" stroke-width="5" stroke-linecap="round"/>
<path d="M133.366 28.1639C116.515 86.2011 126.888 121.679 144.164 91.4463M113.273 60.4623C119.503 57.9582 122.316 57.4763 126.23 58.1151C134.893 58.3672 138.355 56.5531 143.131 51.3549" stroke="#BE1C1C" stroke-opacity="0.5" stroke-width="5" stroke-linecap="round"/>
<path d="M148.829 67.3165C148.635 67.2961 155.374 66.8947 155.338 77.3628C155.301 87.8309 150.892 90.5104 148.829 91.2586C146.765 92.0068 139.564 90.4136 140.972 79.8979C142.381 69.3822 148.829 67.3165 148.829 67.3165ZM148.829 67.3165C157.864 69.3676 162.263 67.978 165.947 66.4714M165.947 66.4714C168.586 60.5712 171.763 58.9221 177.214 56.6129M165.947 66.4714C167.578 73.5685 179.749 79.71 182.284 86.658C184.819 93.6059 173.74 102.244 168.952 102.995C164.163 103.746 160.689 100.272 162.661 95.3898C168.482 84.5924 177.08 79.9303 188.106 73.9827" stroke="#BE1C1C" stroke-opacity="0.5" stroke-width="5" stroke-linecap="round"/>
<path d="M45.6729 84.8739C43.3408 93.3631 42.5805 94.4758 41.4185 101.614" stroke="#BE1C1C" stroke-opacity="0.5" stroke-width="5" stroke-linecap="round"/>
<path d="M79.3936 79.9858C77.0615 88.475 76.3012 89.5877 75.1392 96.7256" stroke="#BE1C1C" stroke-opacity="0.5" stroke-width="5" stroke-linecap="round"/>
</g>
<path d="M44.4907 90.7906C38.1061 76.9887 21.7691 104.686 26.5575 109.757C31.346 114.827 40.5473 103.466 40.5473 103.466C43.7796 112.419 50.3119 108.254 59.701 99.8042M59.701 99.8042C64.5925 82.0832 74.0938 78.8615 78.2914 85.8144M59.701 99.8042C59.701 105.156 65.4376 107.479 74.5357 98.3019C81.7059 117.546 123.359 53.1404 114.627 31.076C105.895 9.01169 76.1319 111.822 112.374 106.564C120.628 105.367 125.894 96.3302 125.894 96.3302" stroke="#FCF5EB" stroke-width="5" stroke-linecap="round"/>
<path d="M133.216 30.4188C116.365 88.4559 126.737 123.934 144.013 93.7012M113.123 62.7172C119.353 60.2131 122.166 59.7312 126.08 60.37C134.742 60.622 138.205 58.808 142.98 53.6098" stroke="#FCF5EB" stroke-width="5" stroke-linecap="round"/>
<path d="M148.677 69.5714C148.484 69.551 155.223 69.1496 155.186 79.6177C155.149 90.0858 150.741 92.7653 148.677 93.5135C146.613 94.2617 139.413 92.6685 140.821 82.1528C142.23 71.6371 148.677 69.5714 148.677 69.5714ZM148.677 69.5714C157.712 71.6225 162.111 70.2329 165.796 68.7263M165.796 68.7263C168.435 62.8261 171.612 61.177 177.063 58.8678M165.796 68.7263C167.427 75.8234 179.598 81.9649 182.133 88.9129C184.668 95.8608 173.589 104.499 168.8 105.25C164.012 106.001 160.538 102.527 162.51 97.6447C168.331 86.8473 176.929 82.1852 187.954 76.2376" stroke="#FCF5EB" stroke-width="5" stroke-linecap="round"/>
<path d="M45.5225 87.129C43.1904 95.6183 42.4301 96.731 41.2681 103.869" stroke="#FCF5EB" stroke-width="5" stroke-linecap="round"/>
<path d="M79.2441 82.2406C76.9121 90.7298 76.1518 91.8425 74.9898 98.9805" stroke="#FCF5EB" stroke-width="5" stroke-linecap="round"/>
<defs>
<filter id="filter0_f_159_22" x="0" y="0" width="216.993" height="139.025" filterUnits="userSpaceOnUse" color-interpolation-filters="sRGB">
<feFlood flood-opacity="0" result="BackgroundImageFix"/>
<feBlend mode="normal" in="SourceGraphic" in2="BackgroundImageFix" result="shape"/>
<feGaussianBlur stdDeviation="10" result="effect1_foregroundBlur_159_22"/>
</filter>
<filter id="filter1_f_159_22" x="14.5488" y="17.2385" width="187.265" height="108.09" filterUnits="userSpaceOnUse" color-interpolation-filters="sRGB">
<feFlood flood-opacity="0" result="BackgroundImageFix"/>
<feBlend mode="normal" in="SourceGraphic" in2="BackgroundImageFix" result="shape"/>
<feGaussianBlur stdDeviation="5" result="effect1_foregroundBlur_159_22"/>
</filter>
<filter id="filter2_f_159_22" x="12.1338" y="16.0309" width="187.265" height="108.09" filterUnits="userSpaceOnUse" color-interpolation-filters="sRGB">
<feFlood flood-opacity="0" result="BackgroundImageFix"/>
<feBlend mode="normal" in="SourceGraphic" in2="BackgroundImageFix" result="shape"/>
<feGaussianBlur stdDeviation="5" result="effect1_foregroundBlur_159_22"/>
</filter>
<filter id="filter3_f_159_22" x="13.3418" y="13.2131" width="187.265" height="108.09" filterUnits="userSpaceOnUse" color-interpolation-filters="sRGB">
<feFlood flood-opacity="0" result="BackgroundImageFix"/>
<feBlend mode="normal" in="SourceGraphic" in2="BackgroundImageFix" result="shape"/>
<feGaussianBlur stdDeviation="5" result="effect1_foregroundBlur_159_22"/>
</filter>
</defs>
</svg>
