<svg width="441" height="214" viewBox="0 0 441 214" fill="none" xmlns="http://www.w3.org/2000/svg">
<path d="M333.88 170V131.12H344.008C345.672 131.12 347.24 131.248 348.712 131.504C350.216 131.76 351.544 132.256 352.696 132.992C353.848 133.696 354.744 134.72 355.384 136.064C356.056 137.376 356.392 139.12 356.392 141.296C356.392 142.864 356.152 144.192 355.672 145.28C355.224 146.336 354.568 147.184 353.704 147.824C352.872 148.464 351.864 148.896 350.68 149.12C352.184 149.312 353.448 149.808 354.472 150.608C355.496 151.376 356.264 152.416 356.776 153.728C357.32 155.04 357.592 156.624 357.592 158.48C357.592 160.496 357.32 162.24 356.776 163.712C356.264 165.152 355.512 166.336 354.52 167.264C353.528 168.192 352.296 168.88 350.824 169.328C349.384 169.776 347.72 170 345.832 170H333.88ZM342.472 164H344.296C346.184 164 347.48 163.52 348.184 162.56C348.92 161.6 349.288 160.192 349.288 158.336C349.288 156.864 349.128 155.696 348.808 154.832C348.488 153.968 347.96 153.344 347.224 152.96C346.488 152.544 345.496 152.336 344.248 152.336H342.472V164ZM342.472 146.672H344.152C345.464 146.672 346.456 146.48 347.128 146.096C347.8 145.68 348.248 145.088 348.472 144.32C348.728 143.552 348.856 142.624 348.856 141.536C348.856 140.512 348.664 139.664 348.28 138.992C347.928 138.288 347.384 137.76 346.648 137.408C345.944 137.056 345.048 136.88 343.96 136.88H342.472V146.672ZM360.133 170L367.477 131.12H377.269L384.517 170H376.597L375.301 161.792H369.589L368.245 170H360.133ZM370.357 156.656H374.485L372.421 141.488L370.357 156.656ZM388.443 170V131.12H394.491L402.459 149.84V131.12H409.562V170H403.755L395.787 149.84V170H388.443ZM415.349 170V131.12H425.189C428.581 131.12 431.221 131.552 433.109 132.416C434.997 133.248 436.325 134.576 437.093 136.4C437.861 138.192 438.245 140.528 438.245 143.408V157.52C438.245 160.432 437.861 162.816 437.093 164.672C436.325 166.496 434.997 167.84 433.109 168.704C431.253 169.568 428.645 170 425.285 170H415.349ZM423.941 164.048H425.285C426.597 164.048 427.541 163.856 428.117 163.472C428.693 163.088 429.045 162.512 429.173 161.744C429.333 160.976 429.413 160.016 429.413 158.864V141.92C429.413 140.768 429.317 139.84 429.125 139.136C428.965 138.432 428.597 137.92 428.021 137.6C427.445 137.28 426.517 137.12 425.237 137.12H423.941V164.048Z" fill="#531C0F"/>
<g filter="url(#filter0_f_70_224)">
<path d="M253.716 90.7626C253.768 105.616 304.653 54.7324 311.576 99.296C350.803 120.992 321.192 166.705 304.653 175.149C286.963 190.502 160.763 199.49 147.391 171.356C48.815 203.933 23.8794 195.158 21.7794 183.208C11.5674 125.098 44.527 121.578 140.961 121.578C136.609 56.9774 155.533 21.1244 203.273 20.1247C240.481 16.9341 253.663 75.9095 253.716 90.7626Z" fill="#531C0F" fill-opacity="0.2"/>
</g>
<g filter="url(#filter1_f_70_224)">
<path d="M66.8315 146.385C55.613 122.133 26.9068 170.802 35.3207 179.711C43.7346 188.619 59.9025 168.657 59.9025 168.657C65.5821 184.389 77.0602 177.071 93.558 162.223M93.558 162.223C102.153 131.085 118.848 125.424 126.224 137.641M93.558 162.223C93.558 171.627 103.638 175.708 119.625 159.583C132.223 193.398 205.413 80.2287 190.07 41.4588C174.727 2.68898 122.429 183.34 186.111 174.101C200.615 171.997 209.868 156.119 209.868 156.119" stroke="#531C0F" stroke-width="8" stroke-linecap="round"/>
<path d="M222.735 40.304C193.125 142.283 211.352 204.622 241.708 151.499M187.43 97.0564C198.376 92.6563 203.319 91.8096 210.197 92.932C225.418 93.3749 231.501 90.1874 239.893 81.0536" stroke="#531C0F" stroke-width="8" stroke-linecap="round"/>
<path d="M249.903 109.1C249.563 109.064 261.405 108.359 261.34 126.752C261.276 145.146 253.53 149.855 249.903 151.169C246.277 152.484 233.624 149.684 236.099 131.207C238.574 112.73 249.903 109.1 249.903 109.1ZM249.903 109.1C265.779 112.704 273.509 110.262 279.983 107.615M279.983 107.615C284.619 97.2476 290.202 94.35 299.78 90.2923M279.983 107.615C282.849 120.085 304.235 130.877 308.689 143.085C313.143 155.294 293.676 170.472 285.262 171.792C276.848 173.111 270.744 167.007 274.208 158.428C284.437 139.456 299.545 131.264 318.918 120.813" stroke="#531C0F" stroke-width="8" stroke-linecap="round"/>
<path d="M68.6465 139.951C64.5488 154.867 63.2129 156.822 61.1711 169.365" stroke="#531C0F" stroke-width="8" stroke-linecap="round"/>
<path d="M127.896 131.362C123.799 146.278 122.463 148.233 120.421 160.776" stroke="#531C0F" stroke-width="8" stroke-linecap="round"/>
</g>
<path d="M63.0327 144.388C51.8142 120.136 23.1079 168.805 31.5219 177.714C39.9358 186.623 56.1036 166.66 56.1036 166.66C61.7833 182.392 73.2613 175.074 89.7592 160.226M89.7592 160.226C98.3542 129.088 115.049 123.427 122.425 135.644M89.7592 160.226C89.7592 169.63 99.8392 173.711 115.826 157.586C128.425 191.401 201.614 78.2319 186.271 39.462C170.928 0.69215 118.63 181.343 182.312 172.104C196.816 170 206.069 154.122 206.069 154.122" stroke="#F9EBD9" stroke-width="8" stroke-linecap="round"/>
<path d="M218.936 38.3071C189.327 140.286 207.553 202.625 237.909 149.502M183.631 95.0596C194.577 90.6595 199.52 89.8128 206.398 90.9352C221.619 91.3781 227.702 88.1906 236.094 79.0567" stroke="#F9EBD9" stroke-width="8" stroke-linecap="round"/>
<path d="M246.104 107.103C245.764 107.067 257.606 106.362 257.541 124.756C257.477 143.15 249.731 147.858 246.104 149.173C242.478 150.487 229.825 147.688 232.3 129.21C234.775 110.733 246.104 107.103 246.104 107.103ZM246.104 107.103C261.98 110.707 269.71 108.266 276.184 105.618M276.184 105.618C280.82 95.251 286.403 92.3534 295.981 88.2957M276.184 105.618C279.05 118.089 300.436 128.88 304.89 141.089C309.345 153.297 289.877 168.475 281.463 169.795C273.049 171.115 266.945 165.011 270.41 156.432C280.638 137.459 295.746 129.267 315.119 118.817" stroke="#F9EBD9" stroke-width="8" stroke-linecap="round"/>
<path d="M64.8477 137.954C60.75 152.871 59.414 154.826 57.3723 167.368" stroke="#F9EBD9" stroke-width="8" stroke-linecap="round"/>
<path d="M124.1 129.365C120.002 144.281 118.666 146.237 116.624 158.779" stroke="#F9EBD9" stroke-width="8" stroke-linecap="round"/>
<defs>
<filter id="filter0_f_70_224" x="0" y="0" width="351" height="214" filterUnits="userSpaceOnUse" color-interpolation-filters="sRGB">
<feFlood flood-opacity="0" result="BackgroundImageFix"/>
<feBlend mode="normal" in="SourceGraphic" in2="BackgroundImageFix" result="shape"/>
<feGaussianBlur stdDeviation="10" result="effect1_foregroundBlur_70_224"/>
</filter>
<filter id="filter1_f_70_224" x="26.7988" y="28.9976" width="299.119" height="160" filterUnits="userSpaceOnUse" color-interpolation-filters="sRGB">
<feFlood flood-opacity="0" result="BackgroundImageFix"/>
<feBlend mode="normal" in="SourceGraphic" in2="BackgroundImageFix" result="shape"/>
<feGaussianBlur stdDeviation="1.5" result="effect1_foregroundBlur_70_224"/>
</filter>
</defs>
</svg>
