<svg width="657" height="286" viewBox="0 0 657 286" fill="none" xmlns="http://www.w3.org/2000/svg">
<path d="M463.529 227.32V175.48H477.033C479.252 175.48 481.343 175.651 483.305 175.992C485.311 176.333 487.081 176.995 488.617 177.976C490.153 178.915 491.348 180.28 492.201 182.072C493.097 183.821 493.545 186.147 493.545 189.048C493.545 191.139 493.225 192.909 492.585 194.36C491.988 195.768 491.113 196.899 489.961 197.752C488.852 198.605 487.508 199.181 485.929 199.48C487.935 199.736 489.62 200.397 490.985 201.464C492.351 202.488 493.375 203.875 494.057 205.624C494.783 207.373 495.145 209.485 495.145 211.96C495.145 214.648 494.783 216.973 494.057 218.936C493.375 220.856 492.372 222.435 491.049 223.672C489.727 224.909 488.084 225.827 486.121 226.424C484.201 227.021 481.983 227.32 479.465 227.32H463.529ZM474.985 219.32H477.417C479.935 219.32 481.663 218.68 482.601 217.4C483.583 216.12 484.073 214.243 484.073 211.768C484.073 209.805 483.86 208.248 483.433 207.096C483.007 205.944 482.303 205.112 481.321 204.6C480.34 204.045 479.017 203.768 477.353 203.768H474.985V219.32ZM474.985 196.216H477.225C478.975 196.216 480.297 195.96 481.193 195.448C482.089 194.893 482.687 194.104 482.985 193.08C483.327 192.056 483.497 190.819 483.497 189.368C483.497 188.003 483.241 186.872 482.729 185.976C482.26 185.037 481.535 184.333 480.553 183.864C479.615 183.395 478.42 183.16 476.969 183.16H474.985V196.216ZM498.533 227.32L508.325 175.48H521.381L531.045 227.32H520.485L518.757 216.376H511.141L509.349 227.32H498.533ZM512.165 209.528H517.669L514.917 189.304L512.165 209.528ZM536.279 227.32V175.48H544.343L554.967 200.44V175.48H564.439V227.32H556.695L546.071 200.44V227.32H536.279ZM572.154 227.32V175.48H585.274C589.797 175.48 593.317 176.056 595.834 177.208C598.352 178.317 600.122 180.088 601.146 182.52C602.17 184.909 602.682 188.024 602.682 191.864V210.68C602.682 214.563 602.17 217.741 601.146 220.216C600.122 222.648 598.352 224.44 595.834 225.592C593.36 226.744 589.882 227.32 585.402 227.32H572.154ZM583.61 219.384H585.402C587.152 219.384 588.41 219.128 589.178 218.616C589.946 218.104 590.416 217.336 590.586 216.312C590.8 215.288 590.906 214.008 590.906 212.472V189.88C590.906 188.344 590.778 187.107 590.522 186.168C590.309 185.229 589.818 184.547 589.05 184.12C588.282 183.693 587.045 183.48 585.338 183.48H583.61V219.384Z" fill="#980D0D"/>
<g filter="url(#filter0_f_118_730)">
<path d="M350.426 120.044C350.499 141.043 422.44 69.1044 432.228 132.108C487.687 162.782 445.824 227.41 422.44 239.348C397.431 261.054 219.01 273.762 200.105 233.986C60.7384 280.044 25.4847 267.637 22.5158 250.743C8.07809 168.588 54.6761 163.61 191.014 163.61C184.861 72.2784 211.616 21.5897 279.11 20.1763C331.715 15.6655 350.352 99.0445 350.426 120.044Z" fill="#D05454" fill-opacity="0.2"/>
</g>
<g filter="url(#filter1_f_118_730)">
<path d="M84.2126 200.257C68.352 165.97 27.7673 234.778 39.6628 247.373C51.5584 259.968 74.4164 231.746 74.4164 231.746C82.4463 253.988 98.6738 243.641 121.998 222.649M121.998 222.649C134.15 178.626 157.753 170.623 168.181 187.895M121.998 222.649C121.998 235.944 136.249 241.714 158.851 218.917C176.663 266.724 280.138 106.726 258.447 51.9136C236.755 -2.89896 162.816 252.504 252.849 239.443C273.355 236.468 286.436 214.019 286.436 214.019" stroke="#BE1C1C" stroke-opacity="0.5" stroke-width="10" stroke-linecap="round"/>
<path d="M304.625 50.2809C262.763 194.458 288.531 282.593 331.449 207.488M254.711 130.517C270.187 124.296 277.175 123.099 286.899 124.686C308.418 125.312 317.019 120.806 328.883 107.892" stroke="#BE1C1C" stroke-opacity="0.5" stroke-width="10" stroke-linecap="round"/>
<path d="M343.037 147.544C342.555 147.494 359.298 146.496 359.206 172.501C359.115 198.506 348.164 205.163 343.037 207.022C337.91 208.88 320.021 204.923 323.52 178.799C327.019 152.676 343.037 147.544 343.037 147.544ZM343.037 147.544C365.482 152.64 376.41 149.188 385.563 145.445M385.563 145.445C392.118 130.788 400.011 126.691 413.553 120.954M385.563 145.445C389.615 163.076 419.85 178.333 426.148 195.593C432.445 212.853 404.923 234.311 393.027 236.177C381.131 238.043 372.501 229.413 377.4 217.285C391.861 190.461 413.22 178.88 440.609 164.105" stroke="#BE1C1C" stroke-opacity="0.5" stroke-width="10" stroke-linecap="round"/>
<path d="M86.7769 191.161C80.9836 212.25 79.0948 215.014 76.2082 232.746" stroke="#BE1C1C" stroke-opacity="0.5" stroke-width="10" stroke-linecap="round"/>
<path d="M170.545 179.018C164.752 200.107 162.863 202.871 159.976 220.603" stroke="#BE1C1C" stroke-opacity="0.5" stroke-width="10" stroke-linecap="round"/>
</g>
<g filter="url(#filter2_f_118_730)">
<path d="M78.2126 197.257C62.352 162.97 21.7673 231.778 33.6628 244.373C45.5584 256.968 68.4164 228.746 68.4164 228.746C76.4463 250.988 92.6738 240.641 115.998 219.649M115.998 219.649C128.15 175.626 151.753 167.623 162.181 184.895M115.998 219.649C115.998 232.944 130.249 238.714 152.851 215.917C170.663 263.724 274.138 103.726 252.447 48.9136C230.755 -5.89896 156.816 249.504 246.849 236.443C267.355 233.468 280.436 211.019 280.436 211.019" stroke="#BE1C1C" stroke-opacity="0.5" stroke-width="10" stroke-linecap="round"/>
<path d="M298.625 47.2809C256.763 191.458 282.531 279.593 325.449 204.488M248.711 127.517C264.187 121.296 271.175 120.099 280.899 121.686C302.418 122.312 311.019 117.806 322.883 104.892" stroke="#BE1C1C" stroke-opacity="0.5" stroke-width="10" stroke-linecap="round"/>
<path d="M337.037 144.544C336.555 144.494 353.298 143.496 353.206 169.501C353.115 195.506 342.164 202.163 337.037 204.022C331.91 205.88 314.021 201.923 317.52 175.799C321.019 149.676 337.037 144.544 337.037 144.544ZM337.037 144.544C359.482 149.64 370.41 146.188 379.563 142.445M379.563 142.445C386.118 127.788 394.011 123.691 407.553 117.954M379.563 142.445C383.615 160.076 413.85 175.333 420.148 192.593C426.445 209.853 398.923 231.311 387.027 233.177C375.131 235.043 366.501 226.413 371.4 214.285C385.861 187.461 407.22 175.88 434.609 161.105" stroke="#BE1C1C" stroke-opacity="0.5" stroke-width="10" stroke-linecap="round"/>
<path d="M80.7769 188.161C74.9836 209.25 73.0948 212.014 70.2082 229.746" stroke="#BE1C1C" stroke-opacity="0.5" stroke-width="10" stroke-linecap="round"/>
<path d="M164.545 176.018C158.752 197.107 156.863 199.871 153.976 217.603" stroke="#BE1C1C" stroke-opacity="0.5" stroke-width="10" stroke-linecap="round"/>
</g>
<g filter="url(#filter3_f_118_730)">
<path d="M81.2126 190.257C65.352 155.97 24.7673 224.778 36.6628 237.373C48.5584 249.968 71.4164 221.746 71.4164 221.746C79.4463 243.988 95.6738 233.641 118.998 212.649M118.998 212.649C131.15 168.626 154.753 160.623 165.181 177.895M118.998 212.649C118.998 225.944 133.249 231.714 155.851 208.917C173.663 256.724 277.138 96.7262 255.447 41.9136C233.755 -12.899 159.816 242.504 249.849 229.443C270.355 226.468 283.436 204.019 283.436 204.019" stroke="#BE1C1C" stroke-opacity="0.5" stroke-width="10" stroke-linecap="round"/>
<path d="M301.625 40.2809C259.763 184.458 285.531 272.593 328.449 197.488M251.711 120.517C267.187 114.296 274.175 113.099 283.899 114.686C305.418 115.312 314.019 110.806 325.883 97.8924" stroke="#BE1C1C" stroke-opacity="0.5" stroke-width="10" stroke-linecap="round"/>
<path d="M340.037 137.544C339.555 137.494 356.298 136.496 356.206 162.501C356.115 188.506 345.164 195.163 340.037 197.022C334.91 198.88 317.021 194.923 320.52 168.799C324.019 142.676 340.037 137.544 340.037 137.544ZM340.037 137.544C362.482 142.64 373.41 139.188 382.563 135.445M382.563 135.445C389.118 120.788 397.011 116.691 410.553 110.954M382.563 135.445C386.615 153.076 416.85 168.333 423.148 185.593C429.445 202.853 401.923 224.311 390.027 226.177C378.131 228.043 369.501 219.413 374.4 207.285C388.861 180.461 410.22 168.88 437.609 154.105" stroke="#BE1C1C" stroke-opacity="0.5" stroke-width="10" stroke-linecap="round"/>
<path d="M83.7769 181.161C77.9836 202.25 76.0948 205.014 73.2082 222.746" stroke="#BE1C1C" stroke-opacity="0.5" stroke-width="10" stroke-linecap="round"/>
<path d="M167.545 169.018C161.752 190.107 159.863 192.871 156.976 210.603" stroke="#BE1C1C" stroke-opacity="0.5" stroke-width="10" stroke-linecap="round"/>
</g>
<path d="M80.8391 195.859C64.9784 161.572 24.3938 230.379 36.2893 242.975C48.1849 255.57 71.0428 227.347 71.0428 227.347C79.0727 249.589 95.3003 239.243 118.625 218.251M118.625 218.251C130.776 174.228 154.38 166.225 164.807 183.497M118.625 218.251C118.625 231.546 132.876 237.316 155.478 214.519C173.29 262.326 276.765 102.328 255.073 47.5153C233.381 -7.29731 159.443 248.106 249.475 235.044C269.981 232.069 283.062 209.621 283.062 209.621" stroke="#FCF5EB" stroke-width="10" stroke-linecap="round"/>
<path d="M301.252 45.8825C259.39 190.059 285.158 278.195 328.076 203.09M251.338 126.119C266.814 119.898 273.802 118.701 283.526 120.288C305.045 120.914 313.646 116.407 325.51 103.494" stroke="#FCF5EB" stroke-width="10" stroke-linecap="round"/>
<path d="M339.664 143.146C339.182 143.095 355.925 142.098 355.833 168.103C355.742 194.108 344.791 200.765 339.664 202.623C334.537 204.482 316.648 200.524 320.147 174.401C323.646 148.278 339.664 143.146 339.664 143.146ZM339.664 143.146C362.108 148.241 373.037 144.789 382.19 141.047M382.19 141.047C388.745 126.389 396.638 122.293 410.18 116.556M382.19 141.047C386.242 158.677 416.477 173.934 422.775 191.194C429.072 208.454 401.55 229.913 389.654 231.779C377.758 233.645 369.128 225.015 374.026 212.886C388.488 186.063 409.847 174.481 437.236 159.706" stroke="#FCF5EB" stroke-width="10" stroke-linecap="round"/>
<path d="M83.4033 186.763C77.61 207.852 75.7213 210.616 72.8347 228.348" stroke="#FCF5EB" stroke-width="10" stroke-linecap="round"/>
<path d="M167.175 174.619C161.382 195.708 159.493 198.472 156.606 216.204" stroke="#FCF5EB" stroke-width="10" stroke-linecap="round"/>
<defs>
<filter id="filter0_f_118_730" x="0" y="0" width="479.689" height="286" filterUnits="userSpaceOnUse" color-interpolation-filters="sRGB">
<feFlood flood-opacity="0" result="BackgroundImageFix"/>
<feBlend mode="normal" in="SourceGraphic" in2="BackgroundImageFix" result="shape"/>
<feGaussianBlur stdDeviation="10" result="effect1_foregroundBlur_118_730"/>
</filter>
<filter id="filter1_f_118_730" x="22.5112" y="29.1923" width="433.099" height="236.414" filterUnits="userSpaceOnUse" color-interpolation-filters="sRGB">
<feFlood flood-opacity="0" result="BackgroundImageFix"/>
<feBlend mode="normal" in="SourceGraphic" in2="BackgroundImageFix" result="shape"/>
<feGaussianBlur stdDeviation="5" result="effect1_foregroundBlur_118_730"/>
</filter>
<filter id="filter2_f_118_730" x="16.5112" y="26.1923" width="433.099" height="236.414" filterUnits="userSpaceOnUse" color-interpolation-filters="sRGB">
<feFlood flood-opacity="0" result="BackgroundImageFix"/>
<feBlend mode="normal" in="SourceGraphic" in2="BackgroundImageFix" result="shape"/>
<feGaussianBlur stdDeviation="5" result="effect1_foregroundBlur_118_730"/>
</filter>
<filter id="filter3_f_118_730" x="19.5112" y="19.1923" width="433.099" height="236.414" filterUnits="userSpaceOnUse" color-interpolation-filters="sRGB">
<feFlood flood-opacity="0" result="BackgroundImageFix"/>
<feBlend mode="normal" in="SourceGraphic" in2="BackgroundImageFix" result="shape"/>
<feGaussianBlur stdDeviation="5" result="effect1_foregroundBlur_118_730"/>
</filter>
</defs>
</svg>
