<svg width="18" height="16" viewBox="0 0 18 16" fill="none" xmlns="http://www.w3.org/2000/svg">
<path d="M2.98438 1.04395C7.32156 0.985232 10.6195 0.986273 15.0029 1.04492C16.0816 1.05935 16.954 1.93377 16.9658 3.01465C17.003 6.40031 17.0155 9.06197 16.9756 12.4395C16.9628 13.5174 16.0841 14.3907 14.998 14.3984C10.6285 14.4297 7.37082 14.4432 2.99414 14.4062C1.91249 14.3971 1.03635 13.5227 1.02539 12.4414C0.991115 9.05817 0.992215 6.39561 1.02637 3.00977C1.03724 1.9316 1.90688 1.0587 2.98438 1.04395Z" stroke="#531C0F" stroke-width="2"/>
<path d="M0.964844 1.92847L8.52557 8.15494C8.89482 8.45904 9.42772 8.45904 9.79698 8.15494L17.3577 1.92847" stroke="#531C0F" stroke-width="2"/>
</svg>
