<svg width="46" height="39" viewBox="0 0 46 39" fill="none" xmlns="http://www.w3.org/2000/svg">
<path d="M3.08984 1.67578C17.8908 1.43896 27.4109 1.4434 42.3857 1.67773C43.1962 1.6906 43.8515 2.34815 43.8613 3.1582C44.012 15.5274 44.0715 23.5691 43.875 35.918C43.8621 36.7269 43.202 37.3835 42.3867 37.3896C27.4291 37.5014 18.0891 37.5632 3.09668 37.4014C2.28399 37.3926 1.62544 36.7347 1.61523 35.9238C1.4596 23.5607 1.46396 15.5225 1.61621 3.1543C1.62616 2.34578 2.28007 1.68874 3.08984 1.67578Z" stroke="white" stroke-width="3"/>
<path d="M1.38477 3L21.7139 21.393C22.0947 21.7376 22.6748 21.7376 23.0557 21.393L43.3848 3" stroke="white" stroke-width="3"/>
</svg>
