<svg width="39" height="33" viewBox="0 0 39 33" fill="none" xmlns="http://www.w3.org/2000/svg">
<path d="M3.06445 1.6416C15.1856 1.45076 23.1514 1.45354 35.4141 1.64258C36.2224 1.65504 36.8789 2.31288 36.8887 3.125C37.0103 13.1874 37.0568 19.894 36.9014 29.9375C36.8888 30.7475 36.2285 31.4039 35.415 31.4102C23.1681 31.5015 15.3448 31.5512 3.07129 31.4219C2.26091 31.4133 1.60194 30.7557 1.5918 29.9434C1.46773 19.887 1.47117 13.1821 1.59277 3.12109C1.60258 2.31127 2.25691 1.65454 3.06445 1.6416Z" stroke="#F9EBD9" stroke-width="3"/>
<path d="M2.0625 4.12476L18.958 18.0387C19.3273 18.3428 19.8602 18.3428 20.2295 18.0387L37.125 4.12476" stroke="#F9EBD9" stroke-width="3"/>
</svg>
