<svg width="39" height="39" viewBox="0 0 39 39" fill="none" xmlns="http://www.w3.org/2000/svg">
<path d="M4.97852 0.133408C15.5397 -0.0462046 23.1139 -0.0433506 33.792 0.135361C36.4936 0.18105 38.6691 2.37575 38.6963 5.07774C38.8032 15.6916 38.8418 23.2484 38.7129 33.8541L38.7041 34.107C38.5419 36.7023 36.3905 38.757 33.7617 38.7799L26.2832 38.8375C19.2005 38.883 13.005 38.886 5.00586 38.7984C2.38026 38.7695 0.242786 36.7077 0.0869141 34.1149L0.078125 33.8619C-0.0141104 24.573 -0.0238259 17.6289 0.0449219 8.92247L0.0791016 5.07188C0.104685 2.45643 2.14479 0.316094 4.72656 0.143173L4.97852 0.133408ZM33.7412 3.13438C23.0958 2.95622 15.5557 2.95341 5.0293 3.13243C3.95826 3.15065 3.08964 4.02362 3.0791 5.10118C2.9754 15.7037 2.97194 23.2374 3.07715 33.8326C3.08829 34.9131 3.96341 35.7867 5.03906 35.7984C15.6749 35.9149 23.1098 35.8709 33.7354 35.7799C34.8229 35.7703 35.6996 34.8918 35.7129 33.817C35.8415 23.2429 35.8031 15.7111 35.6963 5.10802C35.6854 4.02693 34.8133 3.15258 33.7412 3.13438ZM19.0908 11.1295C23.9991 11.1296 27.9785 15.1088 27.9785 20.0172C27.9784 24.9255 23.9991 28.9038 19.0908 28.9039C14.1827 28.9037 10.2033 24.9254 10.2031 20.0172C10.2031 15.1089 14.1826 11.1297 19.0908 11.1295ZM19.0908 14.1295C15.8394 14.1297 13.2031 16.7658 13.2031 20.0172L13.2109 20.3199C13.3636 23.3303 15.7777 25.7445 18.7881 25.8971L19.0908 25.9039C22.2407 25.9038 24.813 23.4306 24.9707 20.3199L24.9785 20.0172C24.9785 16.8673 22.5044 14.295 19.3936 14.1373L19.0908 14.1295ZM29.9502 6.47813C31.2915 6.47813 32.3789 7.56568 32.3789 8.90685C32.3787 10.2478 31.2913 11.3346 29.9502 11.3346C28.6092 11.3344 27.5217 10.2477 27.5215 8.90685C27.5215 7.5658 28.6091 6.47832 29.9502 6.47813Z" fill="#8B1010"/>
</svg>
