<svg width="33" height="34" viewBox="0 0 33 34" fill="none" xmlns="http://www.w3.org/2000/svg">
<path d="M4.95703 0.101555C13.311 -0.0346912 19.523 -0.0333359 27.9668 0.102531C30.6687 0.146155 32.8434 2.34082 32.8701 5.04296C32.9529 13.4345 32.9819 19.6321 32.8857 28.0166L32.877 28.2695C32.7165 30.865 30.5655 32.9181 27.9365 32.9404C20.5863 33.0026 14.9789 33.0361 8.04688 32.9853L4.98535 32.959C2.27467 32.9311 0.0844759 30.7351 0.0585938 28.0244C-0.00132 21.7292 -0.0146198 16.6704 0.015625 10.9912L0.0605469 5.0371C0.0851559 2.42158 2.12421 0.282387 4.70605 0.11132L4.95703 0.101555ZM27.9189 3.10253C19.5063 2.96716 13.3266 2.96487 5.00586 3.10058C3.93679 3.11826 3.07068 3.98874 3.06055 5.06542C2.9817 13.4458 2.9789 19.6223 3.05859 27.9961C3.06907 29.0762 3.9427 29.9479 5.0166 29.959C13.4153 30.0455 19.5173 30.0124 27.9111 29.9414C28.9989 29.9321 29.8734 29.0545 29.8857 27.9814C29.9816 19.6269 29.9528 13.4529 29.8701 5.07226C29.8592 3.99125 28.989 3.1199 27.9189 3.10253ZM17 8.99999C21.4182 8.99999 24.9999 12.5818 25 17C25 21.4183 21.4183 25 17 25C12.5818 24.9999 9 21.4182 9 17C9.00014 12.5819 12.5819 9.00005 17 8.99999ZM17 12C14.2387 12 12.0001 14.2387 12 17C12 19.7614 14.2386 21.9999 17 22C19.7614 22 22 19.7614 22 17C21.9999 14.2387 19.7613 12 17 12ZM25.4355 5.50195C26.5746 5.50195 27.498 6.42545 27.498 7.56445C27.498 8.70345 26.5746 9.62695 25.4355 9.62695C24.2967 9.62669 23.373 8.70329 23.373 7.56445C23.3731 6.42561 24.2967 5.5022 25.4355 5.50195Z" fill="#980D0D"/>
</svg>
