<svg width="39" height="39" viewBox="0 0 39 39" fill="none" xmlns="http://www.w3.org/2000/svg">
<path d="M4.97852 0.133408C15.5398 -0.0462101 23.114 -0.043346 33.792 0.135361C36.4938 0.180802 38.669 2.37568 38.6963 5.07774C38.8032 15.6918 38.8418 23.2483 38.7129 33.8541L38.7041 34.107C38.5421 36.7027 36.3908 38.7572 33.7617 38.7799L26.2832 38.8375C19.2006 38.883 13.0051 38.886 5.00586 38.7984C2.38032 38.7693 0.242567 36.7078 0.0869141 34.1149L0.078125 33.8619C-0.01411 24.5729 -0.0238289 17.6291 0.0449219 8.92247L0.0791016 5.07188C0.104775 2.45666 2.14505 0.316293 4.72656 0.143173L4.97852 0.133408ZM33.7412 3.13438C23.0959 2.95623 15.5558 2.9534 5.0293 3.13243C3.95852 3.15087 3.08974 4.02385 3.0791 5.10118C2.97539 15.7038 2.97194 23.2373 3.07715 33.8326C3.08807 34.9131 3.96348 35.7864 5.03906 35.7984C15.675 35.9149 23.1098 35.8709 33.7354 35.7799C34.8233 35.7706 35.6998 34.8921 35.7129 33.817C35.8415 23.2429 35.8031 15.7112 35.6963 5.10802C35.6853 4.02686 34.8135 3.15233 33.7412 3.13438ZM19.0918 11.1305C24.0001 11.1306 27.9795 15.1098 27.9795 20.0182C27.9791 24.9263 23.9999 28.9048 19.0918 28.9049C14.1838 28.9047 10.2044 24.9262 10.2041 20.0182C10.2041 15.1099 14.1836 11.1307 19.0918 11.1305ZM19.0918 14.1305C15.8404 14.1307 13.2041 16.7668 13.2041 20.0182L13.2119 20.3209C13.3647 23.3311 15.7787 25.7455 18.7891 25.8981L19.0918 25.9049C22.2416 25.9048 24.8138 23.4314 24.9717 20.3209L24.9795 20.0182C24.9795 16.8682 22.5054 14.2959 19.3945 14.1383L19.0918 14.1305ZM29.9512 6.47911C31.2924 6.47911 32.3798 7.56578 32.3799 8.90685C32.3799 10.248 31.2925 11.3356 29.9512 11.3356C28.61 11.3354 27.5225 10.2479 27.5225 8.90685C27.5226 7.56586 28.6101 6.47926 29.9512 6.47911Z" fill="white"/>
</svg>
