<svg width="18" height="18" viewBox="0 0 18 18" fill="none" xmlns="http://www.w3.org/2000/svg">
<path d="M2.96777 0.0527344C7.30344 -0.0158525 10.6031 -0.0147933 14.9844 0.0537109C16.6056 0.0791077 17.91 1.39623 17.9258 3.01758C17.9681 7.37084 17.9824 10.6622 17.9346 15.0117L17.9297 15.1631C17.8344 16.7204 16.5442 17.9524 14.9668 17.9658L11.8711 17.9893C9.8989 18.0013 8.06346 18.0059 6.08789 17.998L2.98535 17.9756C1.40984 17.96 0.127477 16.7238 0.0351562 15.168L0.0292969 15.0166C-0.000840551 11.7507 -0.00744006 9.08302 0.0078125 6.11523L0.0302734 3.01367C0.0450873 1.39389 1.34818 0.0785565 2.96777 0.0527344ZM14.9531 2.05371C10.5923 1.98553 7.31393 1.98449 3 2.05273C2.46823 2.06121 2.03519 2.49448 2.03027 3.03223C1.99053 7.3777 1.98923 10.6562 2.0293 14.998C2.03439 15.5369 2.47036 15.9712 3.00488 15.9766C7.35671 16.0194 10.5976 16.0022 14.9492 15.9658C15.4936 15.9613 15.9286 15.5227 15.9346 14.9893C15.9822 10.659 15.968 7.38288 15.9258 3.03711C15.9205 2.4966 15.4857 2.0621 14.9531 2.05371ZM8.99707 4.74902C11.3437 4.74902 13.246 6.65133 13.2461 8.99805C13.2461 11.3449 11.3437 13.2471 8.99707 13.2471C6.6505 13.2469 4.74805 11.3448 4.74805 8.99805C4.74816 6.65141 6.65057 4.74915 8.99707 4.74902ZM8.99707 6.74902C7.75504 6.74915 6.74816 7.75608 6.74805 8.99805C6.74805 10.2401 7.75497 11.2469 8.99707 11.2471C10.2393 11.2471 11.2461 10.2402 11.2461 8.99805C11.246 7.756 10.2392 6.74902 8.99707 6.74902ZM13.8691 3.00195C14.4901 3.00201 14.9929 3.50514 14.9932 4.12598C14.9932 4.74701 14.4902 5.25092 13.8691 5.25098C13.248 5.25098 12.7441 4.74705 12.7441 4.12598C12.7444 3.50511 13.2482 3.00195 13.8691 3.00195Z" fill="#531C0F"/>
</svg>
