<svg width="33" height="33" viewBox="0 0 33 33" fill="none" xmlns="http://www.w3.org/2000/svg">
<path d="M4.95703 0.101318C13.311 -0.0349277 19.523 -0.0335725 27.9668 0.102295C30.6687 0.145918 32.8434 2.34059 32.8701 5.04272C32.9529 13.4343 32.9819 19.6319 32.8857 28.0164L32.877 28.2693C32.7165 30.8647 30.5655 32.9178 27.9365 32.9402C20.5863 33.0023 14.9789 33.0359 8.04688 32.9851L4.98535 32.9587C2.27467 32.9308 0.0844759 30.7349 0.0585938 28.0242C-0.00132 21.7289 -0.0146198 16.6701 0.015625 10.991L0.0605469 5.03687C0.0851559 2.42134 2.12421 0.28215 4.70605 0.111084L4.95703 0.101318ZM27.9189 3.10229C19.5063 2.96693 13.3266 2.96464 5.00586 3.10034C3.93679 3.11802 3.07068 3.9885 3.06055 5.06519C2.9817 13.4455 2.9789 19.6221 3.05859 27.9958C3.06907 29.0759 3.9427 29.9477 5.0166 29.9587C13.4153 30.0452 19.5173 30.0121 27.9111 29.9412C28.9989 29.9318 29.8734 29.0542 29.8857 27.9812C29.9816 19.6266 29.9528 13.4526 29.8701 5.07202C29.8592 3.99101 28.989 3.11966 27.9189 3.10229ZM17 8.99976C21.4182 8.99976 24.9999 12.5816 25 16.9998C25 21.418 21.4183 24.9998 17 24.9998C12.5818 24.9997 9 21.418 9 16.9998C9.00014 12.5816 12.5819 8.99981 17 8.99976ZM17 11.9998C14.2387 11.9998 12.0001 14.2385 12 16.9998C12 19.7611 14.2386 21.9997 17 21.9998C19.7614 21.9998 22 19.7612 22 16.9998C21.9999 14.2384 19.7613 11.9998 17 11.9998ZM25.4355 5.50171C26.5746 5.50171 27.498 6.42522 27.498 7.56421C27.498 8.70322 26.5746 9.62671 25.4355 9.62671C24.2967 9.62645 23.373 8.70306 23.373 7.56421C23.3731 6.42537 24.2967 5.50196 25.4355 5.50171Z" fill="#F9EBD9"/>
</svg>
